<svg xmlns="http://www.w3.org/2000/svg" viewBox="0 0 256 256">
<rect width="256" height="256" fill="#1a1a1a"/>
<path d="M128 60 L100 85 L100 120 L70 120 L70 140 L186 140 L186 120 L156 120 L156 85 Z M128 40 Q148 40 148 60 Q148 80 128 80 Q108 80 108 60 Q108 40 128 40 Z" fill="#ff6b00"/>
<path d="M40 100 Q60 95 80 100 M40 120 Q65 113 90 120 M176 100 Q196 95 216 100 M166 120 Q191 113 216 120" stroke="#ff6b00" stroke-width="3" fill="none" stroke-linecap="round"/>
<circle cx="35" cy="100" r="4" fill="#ff6b00"/>
<circle cx="35" cy="120" r="4" fill="#ff6b00"/>
<circle cx="221" cy="100" r="4" fill="#ff6b00"/>
<circle cx="221" cy="120" r="4" fill="#ff6b00"/>
</svg>